<svg width="301" height="181" viewBox="0 0 301 181" fill="none" xmlns="http://www.w3.org/2000/svg">
<ellipse opacity="0.2" cx="150.157" cy="171.26" rx="150.157" ry="9.73991" fill="#98C3E8"/>
<path d="M250.397 142.781C247.405 142.033 252.267 151.198 255.073 155.874C257.202 159.615 261.619 159.147 261.619 156.809C261.619 154.471 254.138 143.717 250.397 142.781Z" fill="url(#paint0_linear_98_0)"/>
<path d="M272.404 143.695C272.274 140.613 264.861 147.873 261.172 151.888C258.187 154.989 259.886 159.093 262.129 158.43C264.371 157.768 272.566 147.548 272.404 143.695Z" fill="url(#paint1_linear_98_0)"/>
<path d="M261.597 139.64C259.653 137.244 258.038 147.493 257.473 152.917C256.929 157.186 260.742 159.465 262.146 157.595C263.55 155.726 264.026 142.634 261.597 139.64Z" fill="url(#paint2_linear_98_0)"/>
<path d="M51.6723 168.799L53.0751 163.655H48.8668L42.3206 172.072L51.6723 168.799Z" fill="#6FCF97"/>
<path d="M23.6172 172.072L27.3579 168.799L24.0847 166.461L13.7979 172.072H23.6172Z" fill="#6FCF97"/>
<path d="M111.524 65.9296L108.718 72.4758L107.315 74.3462L102.639 75.7489L102.172 70.6055L105.445 62.6565L111.524 65.9296Z" fill="#F2994A"/>
<path d="M125.551 68.7351L126.954 70.6055L130.695 68.7351L128.824 65.462C127.422 63.1241 124.756 59.9906 123.213 58.4482C121.811 57.0455 121.966 57.9806 121.811 58.9158L124.616 62.6565C124.616 62.6565 123.466 63.6496 123.213 64.5269C122.905 65.594 123.067 66.4066 123.681 67.3324C124.185 68.0934 125.551 68.7351 125.551 68.7351Z" fill="url(#paint3_linear_98_0)"/>
<path d="M105.912 79.9572L108.25 83.2303L112.458 79.9572C111.211 78.5544 108.717 75.6554 108.717 75.2813V72.4758C107.782 72.7875 106.431 73.8012 104.977 73.411C103.48 73.0095 102.795 71.5406 102.171 70.6055C102.171 70.6055 101.227 71.0688 100.768 71.5406C99.2403 73.1112 99.6741 75.2532 100.768 77.1517C101.911 79.134 105.912 79.9572 105.912 79.9572Z" fill="url(#paint4_linear_98_0)"/>
<path d="M130.695 68.7354L148 85.5001L138.644 87.9064L126.954 70.6057L130.695 68.7354Z" fill="url(#paint5_linear_98_0)"/>
<path d="M159.218 76.6841C157.722 73.3175 163.271 68.4234 166.232 66.3972L178.857 81.36L172.778 89.3089L168.102 99.5958L160.621 89.3089L163.426 83.2303C162.647 82.451 160.714 80.0507 159.218 76.6841Z" fill="url(#paint6_linear_98_0)"/>
<path d="M27.3581 168.331L24.085 166.461L71.3112 120.17H108.25L116.199 135.6L67.5705 144.484L27.3581 168.331Z" fill="url(#paint7_linear_98_0)"/>
<path opacity="0.2" d="M114.5 135.5L67.5 144.5L59.5 149L73.5 121L114.5 135.5Z" fill="black"/>
<path d="M127.889 110.818C124.896 112.688 119.316 114.091 117.134 114.559L126.486 127.651L155.009 119.702L166.698 92.1145L162.022 86.0359C159.996 85.7242 154.728 84.5396 151.736 84.1656C147.995 83.698 129.759 89.7766 126.486 89.7766C123.867 89.7766 116.043 83.2304 112.458 79.9573L108.25 83.2304C111.367 87.4387 118.63 96.2293 122.745 97.7256C127.889 99.5959 141.916 95.8552 140.981 97.7256C140.046 99.5959 131.629 108.48 127.889 110.818Z" fill="url(#paint8_linear_98_0)"/>
<path opacity="0.2" d="M146.5 99.5C144.9 103.5 133.167 108.833 127.5 111C133.5 107 138 101.5 141 98C143.667 97 148.1 95.5 146.5 99.5Z" fill="black"/>
<path d="M53.0755 163.655H48.8672C53.2313 146.043 63.0818 110.818 67.5706 110.818C72.0595 110.818 102.484 113.312 117.135 114.559L125.084 124.845L104 134.5L75.052 128.119L53.0755 163.655Z" fill="url(#paint9_linear_98_0)"/>
<path d="M114.33 169.266C87.2098 170.669 83.9367 165.058 81.5987 160.85C78.7932 152.433 81.5987 146.822 95.6263 138.405C109.654 129.989 126.955 121.572 140.982 113.623C155.01 105.674 176.519 67.7999 198.495 64.0592C220.472 60.3185 234.032 88.3737 239.175 117.832C244.319 147.29 228.421 164.123 222.81 164.123C217.199 164.123 141.45 167.863 114.33 169.266Z" fill="url(#paint10_linear_98_0)"/>
<path d="M166.231 76.684C163.239 75.5618 164.985 69.6702 166.231 66.8647C167.77 61.7212 177.921 52.8371 184.935 51.4344C191.948 50.0316 201.3 57.9806 201.3 63.124C201.3 68.2675 201.3 71.073 207.846 74.8137C214.393 78.5544 215.795 88.3737 208.782 92.5819C201.768 96.7902 202.703 93.5171 192.416 97.2578C182.129 100.998 176.518 118.299 172.31 110.818C168.102 103.336 175.115 103.804 170.907 98.6606C166.699 93.5171 176.986 85.5681 176.518 81.8275C176.05 78.0868 169.972 78.0868 166.231 76.684Z" fill="url(#paint11_linear_98_0)"/>
<rect x="33.2783" y="57.6279" width="36.4717" height="27.12" fill="#5A98D0"/>
<g clip-path="url(#clip0_98_0)">
<path d="M47.5793 70.4439C48.7481 72.7409 50.6312 74.6158 52.9282 75.7928L54.7138 74.0071C54.933 73.788 55.2576 73.7149 55.5417 73.8123C56.4508 74.1126 57.4329 74.2749 58.4393 74.2749C58.8857 74.2749 59.251 74.6402 59.251 75.0866V77.9193C59.251 78.3657 58.8857 78.731 58.4393 78.731C50.8178 78.731 44.6411 72.5542 44.6411 64.9328C44.6411 64.4863 45.0064 64.1211 45.4528 64.1211H48.2936C48.74 64.1211 49.1052 64.4863 49.1052 64.9328C49.1052 65.9473 49.2676 66.9213 49.5679 67.8304C49.6572 68.1145 49.5922 68.431 49.365 68.6583L47.5793 70.4439Z" fill="white"/>
</g>
<rect x="51.9463" width="36.4717" height="27.12" fill="#5A98D0"/>
<g clip-path="url(#clip1_98_0)">
<path d="M77.1072 7.30493H64.1206C63.2278 7.30493 62.5054 8.03542 62.5054 8.92825L62.4973 18.6682C62.4973 19.561 63.2278 20.2915 64.1206 20.2915H77.1072C78 20.2915 78.7305 19.561 78.7305 18.6682V8.92825C78.7305 8.03542 78 7.30493 77.1072 7.30493ZM77.1072 10.5516L70.6139 14.6099L64.1206 10.5516V8.92825L70.6139 12.9865L77.1072 8.92825V10.5516Z" fill="white"/>
</g>
<rect x="124.184" width="36.4717" height="27.12" fill="#5A98D0"/>
<g clip-path="url(#clip2_98_0)">
<path d="M142.033 5.68164C137.552 5.68164 133.924 9.31787 133.924 13.7982C133.924 18.2786 137.552 21.9148 142.033 21.9148C146.521 21.9148 150.157 18.2786 150.157 13.7982C150.157 9.31787 146.521 5.68164 142.033 5.68164ZM147.657 10.5516H145.263C145.003 9.53702 144.63 8.56303 144.143 7.66209C145.636 8.17343 146.878 9.21236 147.657 10.5516ZM142.041 7.33743C142.714 8.31142 143.242 9.39092 143.591 10.5516H140.49C140.839 9.39092 141.367 8.31142 142.041 7.33743ZM135.758 15.4216C135.629 14.9021 135.547 14.3583 135.547 13.7982C135.547 13.2382 135.629 12.6944 135.758 12.1749H138.502C138.437 12.7106 138.388 13.2463 138.388 13.7982C138.388 14.3502 138.437 14.8859 138.502 15.4216H135.758ZM136.424 17.0449H138.818C139.078 18.0594 139.451 19.0334 139.938 19.9344C138.445 19.423 137.203 18.3922 136.424 17.0449ZM138.818 10.5516H136.424C137.203 9.20424 138.445 8.17343 139.938 7.66209C139.451 8.56303 139.078 9.53702 138.818 10.5516ZM142.041 20.259C141.367 19.285 140.839 18.2055 140.49 17.0449H143.591C143.242 18.2055 142.714 19.285 142.041 20.259ZM143.94 15.4216H140.141C140.068 14.8859 140.012 14.3502 140.012 13.7982C140.012 13.2463 140.068 12.7025 140.141 12.1749H143.94C144.013 12.7025 144.07 13.2463 144.07 13.7982C144.07 14.3502 144.013 14.8859 143.94 15.4216ZM144.143 19.9344C144.63 19.0334 145.003 18.0594 145.263 17.0449H147.657C146.878 18.3841 145.636 19.423 144.143 19.9344ZM145.579 15.4216C145.644 14.8859 145.693 14.3502 145.693 13.7982C145.693 13.2463 145.644 12.7106 145.579 12.1749H148.323C148.453 12.6944 148.534 13.2382 148.534 13.7982C148.534 14.3583 148.453 14.9021 148.323 15.4216H145.579Z" fill="white"/>
</g>
<path d="M249.461 152.133C250.863 149.795 270.308 150.263 270.97 152.133C271.631 154.003 270.034 164.291 266.761 165.226C263.489 166.161 256.942 166.628 254.136 165.226C251.33 163.823 248.058 154.471 249.461 152.133Z" fill="#F2994A"/>
<defs>
<linearGradient id="paint0_linear_98_0" x1="255.538" y1="142.738" x2="255.538" y2="158.624" gradientUnits="userSpaceOnUse">
<stop stop-color="#6CEDA0"/>
<stop offset="1" stop-color="#199D56"/>
</linearGradient>
<linearGradient id="paint1_linear_98_0" x1="273.901" y1="148.613" x2="258.665" y2="153.113" gradientUnits="userSpaceOnUse">
<stop stop-color="#6CEDA0"/>
<stop offset="1" stop-color="#199D56"/>
</linearGradient>
<linearGradient id="paint2_linear_98_0" x1="265.733" y1="142.693" x2="256.193" y2="155.395" gradientUnits="userSpaceOnUse">
<stop stop-color="#6CEDA0"/>
<stop offset="1" stop-color="#199D56"/>
</linearGradient>
<linearGradient id="paint3_linear_98_0" x1="132.021" y1="61.0366" x2="121.327" y2="65.5814" gradientUnits="userSpaceOnUse">
<stop stop-color="#FFF8E1"/>
<stop offset="1" stop-color="#FFCC80"/>
</linearGradient>
<linearGradient id="paint4_linear_98_0" x1="114.35" y1="73.8456" x2="101.318" y2="81.9064" gradientUnits="userSpaceOnUse">
<stop stop-color="#FFF8E1"/>
<stop offset="1" stop-color="#FFCC80"/>
</linearGradient>
<linearGradient id="paint5_linear_98_0" x1="138.996" y1="67.4492" x2="137.852" y2="86.3109" gradientUnits="userSpaceOnUse">
<stop stop-color="#98D0FC"/>
<stop offset="1" stop-color="#3481D7"/>
</linearGradient>
<linearGradient id="paint6_linear_98_0" x1="164" y1="71.5" x2="164.808" y2="84.3269" gradientUnits="userSpaceOnUse">
<stop stop-color="#FFF8E1"/>
<stop offset="1" stop-color="#FFCC80"/>
</linearGradient>
<linearGradient id="paint7_linear_98_0" x1="42.5" y1="138" x2="78" y2="152" gradientUnits="userSpaceOnUse">
<stop offset="0.0642604" stop-color="#EB5757"/>
<stop offset="1" stop-color="#872727"/>
</linearGradient>
<linearGradient id="paint8_linear_98_0" x1="121" y1="80" x2="146.847" y2="110.376" gradientUnits="userSpaceOnUse">
<stop stop-color="#98D0FC"/>
<stop offset="1" stop-color="#3481D7"/>
</linearGradient>
<linearGradient id="paint9_linear_98_0" x1="70" y1="108" x2="101" y2="142.5" gradientUnits="userSpaceOnUse">
<stop stop-color="#EB5757"/>
<stop offset="1" stop-color="#872727"/>
</linearGradient>
<linearGradient id="paint10_linear_98_0" x1="240" y1="117" x2="166.369" y2="114.12" gradientUnits="userSpaceOnUse">
<stop stop-color="#FCF898"/>
<stop offset="1" stop-color="#D7BD34"/>
</linearGradient>
<linearGradient id="paint11_linear_98_0" x1="189.008" y1="51.271" x2="189.008" y2="112.674" gradientUnits="userSpaceOnUse">
<stop stop-color="#AF6CED"/>
<stop offset="1" stop-color="#5E199D"/>
</linearGradient>
<clipPath id="clip0_98_0">
<rect width="19.4798" height="19.4798" fill="white" transform="translate(42.2061 61.686)"/>
</clipPath>
<clipPath id="clip1_98_0">
<rect width="19.4798" height="19.4798" fill="white" transform="translate(60.874 4.05835)"/>
</clipPath>
<clipPath id="clip2_98_0">
<rect width="19.4798" height="19.4798" fill="white" transform="translate(132.301 4.05835)"/>
</clipPath>
</defs>
</svg>
